<?xml version="1.0" encoding="utf-8"?>
<!-- Generator: Adobe Illustrator 20.0.0, SVG Export Plug-In . SVG Version: 6.00 Build 0)  -->
<svg version="1.1" id="Livello_1" xmlns="http://www.w3.org/2000/svg" xmlns:xlink="http://www.w3.org/1999/xlink" x="0px" y="0px"
	 viewBox="0 0 85 96" style="enable-background:new 0 0 85 96;" xml:space="preserve">
<style type="text/css">
	.st0{fill-rule:evenodd;clip-rule:evenodd;fill:#B8292F;}
	.st1{fill-rule:evenodd;clip-rule:evenodd;fill:#B3B5B8;}
</style>
<path id="Interno" class="st0" d="M21.6,36.3h9.6V14.9h-9.6V36.3z M21.6,81.1h9.6V59.7h-9.6V81.1z M21.6,37.3l2.7,8.2l-1.1,1v3
	l1.1,1l-2.7,8.2h9.6l-2.7-8.3l1.1-1v-3l-1.1-1l2.7-8.1H21.6z M24.3,90.9V96h4.3v-5.1l2.7-8.7h-9.6L24.3,90.9z M37.7,36.3h9.6V14.9
	h-9.6V36.3z M37.7,81.1h9.6V59.7h-9.6V81.1z M37.7,37.3l2.7,8.2l-1.1,1v3l1.1,1l-2.7,8.2h9.6l-2.7-8.2l1.1-1v-3l-1.1-1l2.7-8.2H37.7
	z M40.3,90.9V96h4.3v-5.1l2.7-8.7h-9.6L40.3,90.9z M63.4,14.9h-9.6v21.3h9.6V14.9z M53.7,59.7l0,21.3h9.6l0-21.3H53.7z M53.7,37.3
	l2.7,8.2l-1.1,1v3l1.1,1l-2.7,8.2h9.6l-2.7-8.2l1.1-1v-3l-1.1-1l2.7-8.2H53.7z M56.4,90.9V96h4.3v-5.1l2.7-8.7h-9.6L56.4,90.9z
	 M31.3,13.9l-2.7-8.5l1.1-1V0h-6.5v4.4l1.1,1l-2.7,8.5H31.3z M47.3,13.9l-2.7-8.5l1.1-1V0h-6.5v4.4l1.1,1l-2.7,8.5H47.3z M63.4,13.9
	l-2.7-8.5l1.1-1V0h-6.5v4.4l1.1,1l-2.7,8.5H63.4z"/>
<path id="Esterno" class="st1" d="M20.6,14.9H11v21.3h9.6V14.9z M11,81.1h9.6l0-21.3H11V81.1z M23.2,50.6l-0.9-0.9v-3.5l0.9-0.9
	l-2.7-8H11v21.3h9.6L23.2,50.6z M23.2,5.8l-0.9-0.9V0L11,0v13.9h9.6L23.2,5.8z M36.5,13.9l2.7-8l-0.9-0.9V0h-7.5v4.9l-0.9,0.9l2.7,8
	H36.5z M52.5,13.9l2.7-8l-0.9-0.9V0h-7.5v4.9l-0.9,0.9l2.7,8H52.5z M62.7,0v4.9l-0.9,0.9l2.7,8H74V0L62.7,0z M11,82.1V96h12.5v-5.1
	l-2.9-8.8H11z M32.3,36.3h4.3V14.9h-4.3V36.3z M36.6,59.7h-4.2l0,21.3h4.2V59.7z M39.3,45.3l-2.7-8h-2.1h-2.1l-2.7,7.9l1.1,0.9v3.5
	l-1.1,0.9l2.7,8l2.1,0l2.1,0l2.7-8l-1.1-0.9v-3.5L39.3,45.3z M32.4,82.1l-2.7,8.8V96h9.6v-5.1l-2.7-8.8H32.4z M48.4,36.2h4.2V14.9
	h-4.2V36.2z M48.4,81.1h4.3V59.7h-4.3V81.1z M45.7,50.7l2.7,8l2.2,0h2.1l2.7-8l-1.1-0.9v-3.5l1.1-0.9l-2.7-8h-2.1h-2.1l-2.7,8
	l1.1,0.9v3.5L45.7,50.7z M48.4,82.1l-2.7,8.7V96h9.8v-5.1l-2.9-8.7H48.4z M64.4,81.1H74l0-21.3h-9.6V81.1z M74,14.9l-9.6,0v21.3
	l9.6,0V14.9z M61.8,50.7l2.7,8H74V37.3h-9.6l-2.7,8l1.1,0.9v3.5L61.8,50.7z M61.8,90.9V96H74V82.1h-9.6L61.8,90.9z"/>
</svg>
